
<svg height="629pt" viewBox="0.00 0.00 1657.57 629.00" width="1658pt" xmlns="http://www.w3.org/2000/svg" xmlns:xlink="http://www.w3.org/1999/xlink">
<g class="graph" id="graph0" transform="scale(1 1) rotate(0) translate(4 625)">
<title>G</title>
<polygon fill="white" points="-4,4 -4,-625 1653.57,-625 1653.57,4 -4,4" stroke="none"/>
<!-- 14283696144 -->
<g class="node" id="node1"><title>14283696144</title>
<polygon fill="none" points="753.104,-584.5 753.104,-620.5 895.466,-620.5 895.466,-584.5 753.104,-584.5" stroke="black"/>
<text font-family="Times,serif" font-size="14.00" text-anchor="middle" x="824.285" y="-598.3">input_139: InputLayer</text>
</g>
<!-- 14283695952 -->
<g class="node" id="node2"><title>14283695952</title>
<polygon fill="none" points="738.714,-511.5 738.714,-547.5 909.855,-547.5 909.855,-511.5 738.714,-511.5" stroke="black"/>
<text font-family="Times,serif" font-size="14.00" text-anchor="middle" x="824.285" y="-525.3">embedding_81: Embedding</text>
</g>
<!-- 14283696144&#45;&gt;14283695952 -->
<g class="edge" id="edge1"><title>14283696144-&gt;14283695952</title>
<path d="M824.285,-584.313C824.285,-576.289 824.285,-566.547 824.285,-557.569" fill="none" stroke="black"/>
<polygon fill="black" points="827.785,-557.529 824.285,-547.529 820.785,-557.529 827.785,-557.529" stroke="black"/>
</g>
<!-- 14283696784 -->
<g class="node" id="node3"><title>14283696784</title>
<polygon fill="none" points="765.152,-438.5 765.152,-474.5 883.417,-474.5 883.417,-438.5 765.152,-438.5" stroke="black"/>
<text font-family="Times,serif" font-size="14.00" text-anchor="middle" x="824.285" y="-452.3">flatten_69: Flatten</text>
</g>
<!-- 14283695952&#45;&gt;14283696784 -->
<g class="edge" id="edge2"><title>14283695952-&gt;14283696784</title>
<path d="M824.285,-511.313C824.285,-503.289 824.285,-493.547 824.285,-484.569" fill="none" stroke="black"/>
<polygon fill="black" points="827.785,-484.529 824.285,-474.529 820.785,-484.529 827.785,-484.529" stroke="black"/>
</g>
<!-- 13438873296 -->
<g class="node" id="node4"><title>13438873296</title>
<polygon fill="none" points="3.55176,-365.5 3.55176,-401.5 149.018,-401.5 149.018,-365.5 3.55176,-365.5" stroke="black"/>
<text font-family="Times,serif" font-size="14.00" text-anchor="middle" x="76.2847" y="-379.3">lambda_1648: Lambda</text>
</g>
<!-- 14283696784&#45;&gt;13438873296 -->
<g class="edge" id="edge3"><title>14283696784-&gt;13438873296</title>
<path d="M765.033,-453.157C648.77,-448.021 382.779,-433.616 161.285,-402 160.679,-401.914 160.071,-401.825 159.461,-401.736" fill="none" stroke="black"/>
<polygon fill="black" points="159.865,-398.256 149.442,-400.155 158.774,-405.171 159.865,-398.256" stroke="black"/>
</g>
<!-- 13440526800 -->
<g class="node" id="node5"><title>13440526800</title>
<polygon fill="none" points="170.552,-365.5 170.552,-401.5 316.018,-401.5 316.018,-365.5 170.552,-365.5" stroke="black"/>
<text font-family="Times,serif" font-size="14.00" text-anchor="middle" x="243.285" y="-379.3">lambda_1649: Lambda</text>
</g>
<!-- 14283696784&#45;&gt;13440526800 -->
<g class="edge" id="edge4"><title>14283696784-&gt;13440526800</title>
<path d="M764.873,-450.94C671.556,-443.361 485.09,-426.541 328.285,-402 327.68,-401.905 327.073,-401.809 326.464,-401.712" fill="none" stroke="black"/>
<polygon fill="black" points="326.903,-398.237 316.461,-400.028 325.741,-405.14 326.903,-398.237" stroke="black"/>
</g>
<!-- 14287252496 -->
<g class="node" id="node6"><title>14287252496</title>
<polygon fill="none" points="337.552,-365.5 337.552,-401.5 483.018,-401.5 483.018,-365.5 337.552,-365.5" stroke="black"/>
<text font-family="Times,serif" font-size="14.00" text-anchor="middle" x="410.285" y="-379.3">lambda_1650: Lambda</text>
</g>
<!-- 14283696784&#45;&gt;14287252496 -->
<g class="edge" id="edge5"><title>14283696784-&gt;14287252496</title>
<path d="M765.02,-446.627C699.05,-436.572 589.331,-419.32 495.285,-402 494.535,-401.862 493.781,-401.722 493.024,-401.582" fill="none" stroke="black"/>
<polygon fill="black" points="493.521,-398.113 483.044,-399.688 492.216,-404.991 493.521,-398.113" stroke="black"/>
</g>
<!-- 14292393808 -->
<g class="node" id="node7"><title>14292393808</title>
<polygon fill="none" points="504.552,-365.5 504.552,-401.5 650.018,-401.5 650.018,-365.5 504.552,-365.5" stroke="black"/>
<text font-family="Times,serif" font-size="14.00" text-anchor="middle" x="577.285" y="-379.3">lambda_1651: Lambda</text>
</g>
<!-- 14283696784&#45;&gt;14292393808 -->
<g class="edge" id="edge6"><title>14283696784-&gt;14292393808</title>
<path d="M765.122,-438.494C729.487,-428.25 683.936,-415.157 646.616,-404.429" fill="none" stroke="black"/>
<polygon fill="black" points="647.398,-401.012 636.821,-401.614 645.465,-407.74 647.398,-401.012" stroke="black"/>
</g>
<!-- 14296798736 -->
<g class="node" id="node8"><title>14296798736</title>
<polygon fill="none" points="669.552,-365.5 669.552,-401.5 815.018,-401.5 815.018,-365.5 669.552,-365.5" stroke="black"/>
<text font-family="Times,serif" font-size="14.00" text-anchor="middle" x="742.285" y="-379.3">lambda_1652: Lambda</text>
</g>
<!-- 14283696784&#45;&gt;14296798736 -->
<g class="edge" id="edge7"><title>14283696784-&gt;14296798736</title>
<path d="M804.435,-438.313C793.96,-429.243 780.948,-417.977 769.541,-408.1" fill="none" stroke="black"/>
<polygon fill="black" points="771.803,-405.429 761.952,-401.529 767.221,-410.721 771.803,-405.429" stroke="black"/>
</g>
<!-- 14301609552 -->
<g class="node" id="node9"><title>14301609552</title>
<polygon fill="none" points="833.552,-365.5 833.552,-401.5 979.018,-401.5 979.018,-365.5 833.552,-365.5" stroke="black"/>
<text font-family="Times,serif" font-size="14.00" text-anchor="middle" x="906.285" y="-379.3">lambda_1653: Lambda</text>
</g>
<!-- 14283696784&#45;&gt;14301609552 -->
<g class="edge" id="edge8"><title>14283696784-&gt;14301609552</title>
<path d="M844.135,-438.313C854.61,-429.243 867.621,-417.977 879.028,-408.1" fill="none" stroke="black"/>
<polygon fill="black" points="881.349,-410.721 886.618,-401.529 876.767,-405.429 881.349,-410.721" stroke="black"/>
</g>
<!-- 14307036176 -->
<g class="node" id="node10"><title>14307036176</title>
<polygon fill="none" points="997.552,-365.5 997.552,-401.5 1143.02,-401.5 1143.02,-365.5 997.552,-365.5" stroke="black"/>
<text font-family="Times,serif" font-size="14.00" text-anchor="middle" x="1070.28" y="-379.3">lambda_1654: Lambda</text>
</g>
<!-- 14283696784&#45;&gt;14307036176 -->
<g class="edge" id="edge9"><title>14283696784-&gt;14307036176</title>
<path d="M883.208,-438.494C918.699,-428.25 964.065,-415.157 1001.23,-404.429" fill="none" stroke="black"/>
<polygon fill="black" points="1002.35,-407.749 1010.99,-401.614 1000.41,-401.024 1002.35,-407.749" stroke="black"/>
</g>
<!-- 14312662736 -->
<g class="node" id="node11"><title>14312662736</title>
<polygon fill="none" points="1162.55,-365.5 1162.55,-401.5 1308.02,-401.5 1308.02,-365.5 1162.55,-365.5" stroke="black"/>
<text font-family="Times,serif" font-size="14.00" text-anchor="middle" x="1235.28" y="-379.3">lambda_1655: Lambda</text>
</g>
<!-- 14283696784&#45;&gt;14312662736 -->
<g class="edge" id="edge10"><title>14283696784-&gt;14312662736</title>
<path d="M883.682,-446.655C949.497,-436.658 1058.7,-419.488 1152.28,-402 1152.39,-401.981 1152.49,-401.961 1152.6,-401.942" fill="none" stroke="black"/>
<polygon fill="black" points="1153.29,-405.374 1162.45,-400.055 1151.97,-398.498 1153.29,-405.374" stroke="black"/>
</g>
<!-- 14316741264 -->
<g class="node" id="node12"><title>14316741264</title>
<polygon fill="none" points="1329.55,-365.5 1329.55,-401.5 1475.02,-401.5 1475.02,-365.5 1329.55,-365.5" stroke="black"/>
<text font-family="Times,serif" font-size="14.00" text-anchor="middle" x="1402.28" y="-379.3">lambda_1656: Lambda</text>
</g>
<!-- 14283696784&#45;&gt;14316741264 -->
<g class="edge" id="edge11"><title>14283696784-&gt;14316741264</title>
<path d="M883.717,-450.885C976.593,-443.261 1161.64,-426.411 1317.28,-402 1317.89,-401.905 1318.5,-401.809 1319.11,-401.711" fill="none" stroke="black"/>
<polygon fill="black" points="1319.83,-405.139 1329.11,-400.025 1318.67,-398.236 1319.83,-405.139" stroke="black"/>
</g>
<!-- 14321939792 -->
<g class="node" id="node13"><title>14321939792</title>
<polygon fill="none" points="1501.55,-365.5 1501.55,-401.5 1647.02,-401.5 1647.02,-365.5 1501.55,-365.5" stroke="black"/>
<text font-family="Times,serif" font-size="14.00" text-anchor="middle" x="1574.28" y="-379.3">lambda_1657: Lambda</text>
</g>
<!-- 14283696784&#45;&gt;14321939792 -->
<g class="edge" id="edge12"><title>14283696784-&gt;14321939792</title>
<path d="M883.687,-452.902C999.605,-447.342 1263.91,-432.262 1484.28,-402 1486.53,-401.692 1488.8,-401.364 1491.09,-401.02" fill="none" stroke="black"/>
<polygon fill="black" points="1491.88,-404.438 1501.21,-399.414 1490.79,-397.524 1491.88,-404.438" stroke="black"/>
</g>
<!-- 13439177808 -->
<g class="node" id="node14"><title>13439177808</title>
<polygon fill="none" points="0,-292.5 0,-328.5 148.569,-328.5 148.569,-292.5 0,-292.5" stroke="black"/>
<text font-family="Times,serif" font-size="14.00" text-anchor="middle" x="74.2847" y="-306.3">reshape_1405: Reshape</text>
</g>
<!-- 13438873296&#45;&gt;13439177808 -->
<g class="edge" id="edge13"><title>13438873296-&gt;13439177808</title>
<path d="M75.8005,-365.313C75.5745,-357.289 75.3001,-347.547 75.0472,-338.569" fill="none" stroke="black"/>
<polygon fill="black" points="78.5446,-338.426 74.7644,-328.529 71.5474,-338.623 78.5446,-338.426" stroke="black"/>
</g>
<!-- 13441403408 -->
<g class="node" id="node15"><title>13441403408</title>
<polygon fill="none" points="167,-292.5 167,-328.5 315.569,-328.5 315.569,-292.5 167,-292.5" stroke="black"/>
<text font-family="Times,serif" font-size="14.00" text-anchor="middle" x="241.285" y="-306.3">reshape_1406: Reshape</text>
</g>
<!-- 13440526800&#45;&gt;13441403408 -->
<g class="edge" id="edge14"><title>13440526800-&gt;13441403408</title>
<path d="M242.801,-365.313C242.575,-357.289 242.3,-347.547 242.047,-338.569" fill="none" stroke="black"/>
<polygon fill="black" points="245.545,-338.426 241.764,-328.529 238.547,-338.623 245.545,-338.426" stroke="black"/>
</g>
<!-- 14287313936 -->
<g class="node" id="node16"><title>14287313936</title>
<polygon fill="none" points="334,-292.5 334,-328.5 482.569,-328.5 482.569,-292.5 334,-292.5" stroke="black"/>
<text font-family="Times,serif" font-size="14.00" text-anchor="middle" x="408.285" y="-306.3">reshape_1407: Reshape</text>
</g>
<!-- 14287252496&#45;&gt;14287313936 -->
<g class="edge" id="edge15"><title>14287252496-&gt;14287313936</title>
<path d="M409.801,-365.313C409.575,-357.289 409.3,-347.547 409.047,-338.569" fill="none" stroke="black"/>
<polygon fill="black" points="412.545,-338.426 408.764,-328.529 405.547,-338.623 412.545,-338.426" stroke="black"/>
</g>
<!-- 14293764816 -->
<g class="node" id="node17"><title>14293764816</title>
<polygon fill="none" points="501,-292.5 501,-328.5 649.569,-328.5 649.569,-292.5 501,-292.5" stroke="black"/>
<text font-family="Times,serif" font-size="14.00" text-anchor="middle" x="575.285" y="-306.3">reshape_1408: Reshape</text>
</g>
<!-- 14292393808&#45;&gt;14293764816 -->
<g class="edge" id="edge16"><title>14292393808-&gt;14293764816</title>
<path d="M576.801,-365.313C576.575,-357.289 576.3,-347.547 576.047,-338.569" fill="none" stroke="black"/>
<polygon fill="black" points="579.545,-338.426 575.764,-328.529 572.547,-338.623 579.545,-338.426" stroke="black"/>
</g>
<!-- 14297302864 -->
<g class="node" id="node18"><title>14297302864</title>
<polygon fill="none" points="668,-292.5 668,-328.5 816.569,-328.5 816.569,-292.5 668,-292.5" stroke="black"/>
<text font-family="Times,serif" font-size="14.00" text-anchor="middle" x="742.285" y="-306.3">reshape_1409: Reshape</text>
</g>
<!-- 14296798736&#45;&gt;14297302864 -->
<g class="edge" id="edge17"><title>14296798736-&gt;14297302864</title>
<path d="M742.285,-365.313C742.285,-357.289 742.285,-347.547 742.285,-338.569" fill="none" stroke="black"/>
<polygon fill="black" points="745.785,-338.529 742.285,-328.529 738.785,-338.529 745.785,-338.529" stroke="black"/>
</g>
<!-- 14304790032 -->
<g class="node" id="node19"><title>14304790032</title>
<polygon fill="none" points="835,-292.5 835,-328.5 983.569,-328.5 983.569,-292.5 835,-292.5" stroke="black"/>
<text font-family="Times,serif" font-size="14.00" text-anchor="middle" x="909.285" y="-306.3">reshape_1410: Reshape</text>
</g>
<!-- 14301609552&#45;&gt;14304790032 -->
<g class="edge" id="edge18"><title>14301609552-&gt;14304790032</title>
<path d="M907.011,-365.313C907.35,-357.289 907.762,-347.547 908.141,-338.569" fill="none" stroke="black"/>
<polygon fill="black" points="911.64,-338.668 908.565,-328.529 904.646,-338.372 911.64,-338.668" stroke="black"/>
</g>
<!-- 14306917584 -->
<g class="node" id="node20"><title>14306917584</title>
<polygon fill="none" points="1001.26,-292.5 1001.26,-328.5 1149.31,-328.5 1149.31,-292.5 1001.26,-292.5" stroke="black"/>
<text font-family="Times,serif" font-size="14.00" text-anchor="middle" x="1075.28" y="-306.3">reshape_1411: Reshape</text>
</g>
<!-- 14307036176&#45;&gt;14306917584 -->
<g class="edge" id="edge19"><title>14307036176-&gt;14306917584</title>
<path d="M1071.5,-365.313C1072.06,-357.289 1072.75,-347.547 1073.38,-338.569" fill="none" stroke="black"/>
<polygon fill="black" points="1076.87,-338.75 1074.09,-328.529 1069.89,-338.258 1076.87,-338.75" stroke="black"/>
</g>
<!-- 14312541264 -->
<g class="node" id="node21"><title>14312541264</title>
<polygon fill="none" points="1167,-292.5 1167,-328.5 1315.57,-328.5 1315.57,-292.5 1167,-292.5" stroke="black"/>
<text font-family="Times,serif" font-size="14.00" text-anchor="middle" x="1241.28" y="-306.3">reshape_1412: Reshape</text>
</g>
<!-- 14312662736&#45;&gt;14312541264 -->
<g class="edge" id="edge20"><title>14312662736-&gt;14312541264</title>
<path d="M1236.74,-365.313C1237.42,-357.289 1238.24,-347.547 1239,-338.569" fill="none" stroke="black"/>
<polygon fill="black" points="1242.49,-338.788 1239.85,-328.529 1235.52,-338.199 1242.49,-338.788" stroke="black"/>
</g>
<!-- 14317854160 -->
<g class="node" id="node22"><title>14317854160</title>
<polygon fill="none" points="1334,-292.5 1334,-328.5 1482.57,-328.5 1482.57,-292.5 1334,-292.5" stroke="black"/>
<text font-family="Times,serif" font-size="14.00" text-anchor="middle" x="1408.28" y="-306.3">reshape_1413: Reshape</text>
</g>
<!-- 14316741264&#45;&gt;14317854160 -->
<g class="edge" id="edge21"><title>14316741264-&gt;14317854160</title>
<path d="M1403.74,-365.313C1404.42,-357.289 1405.24,-347.547 1406,-338.569" fill="none" stroke="black"/>
<polygon fill="black" points="1409.49,-338.788 1406.85,-328.529 1402.52,-338.199 1409.49,-338.788" stroke="black"/>
</g>
<!-- 14324394768 -->
<g class="node" id="node23"><title>14324394768</title>
<polygon fill="none" points="1501,-292.5 1501,-328.5 1649.57,-328.5 1649.57,-292.5 1501,-292.5" stroke="black"/>
<text font-family="Times,serif" font-size="14.00" text-anchor="middle" x="1575.28" y="-306.3">reshape_1414: Reshape</text>
</g>
<!-- 14321939792&#45;&gt;14324394768 -->
<g class="edge" id="edge22"><title>14321939792-&gt;14324394768</title>
<path d="M1574.53,-365.313C1574.64,-357.289 1574.78,-347.547 1574.9,-338.569" fill="none" stroke="black"/>
<polygon fill="black" points="1578.4,-338.577 1575.04,-328.529 1571.4,-338.479 1578.4,-338.577" stroke="black"/>
</g>
<!-- 13439180560 -->
<g class="node" id="node24"><title>13439180560</title>
<polygon fill="none" points="29.3623,-219.5 29.3623,-255.5 149.207,-255.5 149.207,-219.5 29.3623,-219.5" stroke="black"/>
<text font-family="Times,serif" font-size="14.00" text-anchor="middle" x="89.2847" y="-233.3">lstm_1273: LSTM</text>
</g>
<!-- 13439177808&#45;&gt;13439180560 -->
<g class="edge" id="edge23"><title>13439177808-&gt;13439180560</title>
<path d="M77.9157,-292.313C79.6108,-284.289 81.669,-274.547 83.5658,-265.569" fill="none" stroke="black"/>
<polygon fill="black" points="87.0443,-266.036 85.687,-255.529 80.1955,-264.589 87.0443,-266.036" stroke="black"/>
</g>
<!-- 14283856976 -->
<g class="node" id="node25"><title>14283856976</title>
<polygon fill="none" points="225.362,-219.5 225.362,-255.5 345.207,-255.5 345.207,-219.5 225.362,-219.5" stroke="black"/>
<text font-family="Times,serif" font-size="14.00" text-anchor="middle" x="285.285" y="-233.3">lstm_1274: LSTM</text>
</g>
<!-- 13441403408&#45;&gt;14283856976 -->
<g class="edge" id="edge24"><title>13441403408-&gt;14283856976</title>
<path d="M251.936,-292.313C257.178,-283.853 263.605,-273.484 269.412,-264.112" fill="none" stroke="black"/>
<polygon fill="black" points="272.439,-265.873 274.732,-255.529 266.489,-262.185 272.439,-265.873" stroke="black"/>
</g>
<!-- 14290015568 -->
<g class="node" id="node26"><title>14290015568</title>
<polygon fill="none" points="392.362,-219.5 392.362,-255.5 512.207,-255.5 512.207,-219.5 392.362,-219.5" stroke="black"/>
<text font-family="Times,serif" font-size="14.00" text-anchor="middle" x="452.285" y="-233.3">lstm_1275: LSTM</text>
</g>
<!-- 14287313936&#45;&gt;14290015568 -->
<g class="edge" id="edge25"><title>14287313936-&gt;14290015568</title>
<path d="M418.936,-292.313C424.178,-283.853 430.605,-273.484 436.412,-264.112" fill="none" stroke="black"/>
<polygon fill="black" points="439.439,-265.873 441.732,-255.529 433.489,-262.185 439.439,-265.873" stroke="black"/>
</g>
<!-- 14292462864 -->
<g class="node" id="node27"><title>14292462864</title>
<polygon fill="none" points="544.362,-219.5 544.362,-255.5 664.207,-255.5 664.207,-219.5 544.362,-219.5" stroke="black"/>
<text font-family="Times,serif" font-size="14.00" text-anchor="middle" x="604.285" y="-233.3">lstm_1276: LSTM</text>
</g>
<!-- 14293764816&#45;&gt;14292462864 -->
<g class="edge" id="edge26"><title>14293764816-&gt;14292462864</title>
<path d="M582.305,-292.313C585.653,-284.115 589.734,-274.123 593.467,-264.985" fill="none" stroke="black"/>
<polygon fill="black" points="596.788,-266.11 597.329,-255.529 590.308,-263.463 596.788,-266.11" stroke="black"/>
</g>
<!-- 14295383184 -->
<g class="node" id="node28"><title>14295383184</title>
<polygon fill="none" points="689.362,-219.5 689.362,-255.5 809.207,-255.5 809.207,-219.5 689.362,-219.5" stroke="black"/>
<text font-family="Times,serif" font-size="14.00" text-anchor="middle" x="749.285" y="-233.3">lstm_1277: LSTM</text>
</g>
<!-- 14297302864&#45;&gt;14295383184 -->
<g class="edge" id="edge27"><title>14297302864-&gt;14295383184</title>
<path d="M743.979,-292.313C744.77,-284.289 745.731,-274.547 746.616,-265.569" fill="none" stroke="black"/>
<polygon fill="black" points="750.108,-265.824 747.606,-255.529 743.141,-265.137 750.108,-265.824" stroke="black"/>
</g>
<!-- 14304791184 -->
<g class="node" id="node29"><title>14304791184</title>
<polygon fill="none" points="841.362,-219.5 841.362,-255.5 961.207,-255.5 961.207,-219.5 841.362,-219.5" stroke="black"/>
<text font-family="Times,serif" font-size="14.00" text-anchor="middle" x="901.285" y="-233.3">lstm_1278: LSTM</text>
</g>
<!-- 14304790032&#45;&gt;14304791184 -->
<g class="edge" id="edge28"><title>14304790032-&gt;14304791184</title>
<path d="M907.348,-292.313C906.444,-284.289 905.346,-274.547 904.335,-265.569" fill="none" stroke="black"/>
<polygon fill="black" points="907.801,-265.074 903.203,-255.529 900.845,-265.858 907.801,-265.074" stroke="black"/>
</g>
<!-- 14306471888 -->
<g class="node" id="node30"><title>14306471888</title>
<polygon fill="none" points="1000.36,-219.5 1000.36,-255.5 1120.21,-255.5 1120.21,-219.5 1000.36,-219.5" stroke="black"/>
<text font-family="Times,serif" font-size="14.00" text-anchor="middle" x="1060.28" y="-233.3">lstm_1279: LSTM</text>
</g>
<!-- 14306917584&#45;&gt;14306471888 -->
<g class="edge" id="edge29"><title>14306917584-&gt;14306471888</title>
<path d="M1071.65,-292.313C1069.96,-284.289 1067.9,-274.547 1066,-265.569" fill="none" stroke="black"/>
<polygon fill="black" points="1069.37,-264.589 1063.88,-255.529 1062.53,-266.036 1069.37,-264.589" stroke="black"/>
</g>
<!-- 14313969552 -->
<g class="node" id="node31"><title>14313969552</title>
<polygon fill="none" points="1163.36,-219.5 1163.36,-255.5 1283.21,-255.5 1283.21,-219.5 1163.36,-219.5" stroke="black"/>
<text font-family="Times,serif" font-size="14.00" text-anchor="middle" x="1223.28" y="-233.3">lstm_1280: LSTM</text>
</g>
<!-- 14312541264&#45;&gt;14313969552 -->
<g class="edge" id="edge30"><title>14312541264-&gt;14313969552</title>
<path d="M1236.93,-292.313C1234.87,-284.202 1232.37,-274.336 1230.07,-265.277" fill="none" stroke="black"/>
<polygon fill="black" points="1233.45,-264.362 1227.6,-255.529 1226.67,-266.082 1233.45,-264.362" stroke="black"/>
</g>
<!-- 14317926544 -->
<g class="node" id="node32"><title>14317926544</title>
<polygon fill="none" points="1328.36,-219.5 1328.36,-255.5 1448.21,-255.5 1448.21,-219.5 1328.36,-219.5" stroke="black"/>
<text font-family="Times,serif" font-size="14.00" text-anchor="middle" x="1388.28" y="-233.3">lstm_1281: LSTM</text>
</g>
<!-- 14317854160&#45;&gt;14317926544 -->
<g class="edge" id="edge31"><title>14317854160-&gt;14317926544</title>
<path d="M1403.44,-292.313C1401.16,-284.202 1398.38,-274.336 1395.83,-265.277" fill="none" stroke="black"/>
<polygon fill="black" points="1399.16,-264.205 1393.08,-255.529 1392.42,-266.103 1399.16,-264.205" stroke="black"/>
</g>
<!-- 14321630544 -->
<g class="node" id="node33"><title>14321630544</title>
<polygon fill="none" points="1494.36,-219.5 1494.36,-255.5 1614.21,-255.5 1614.21,-219.5 1494.36,-219.5" stroke="black"/>
<text font-family="Times,serif" font-size="14.00" text-anchor="middle" x="1554.28" y="-233.3">lstm_1282: LSTM</text>
</g>
<!-- 14324394768&#45;&gt;14321630544 -->
<g class="edge" id="edge32"><title>14324394768-&gt;14321630544</title>
<path d="M1570.2,-292.313C1567.8,-284.202 1564.88,-274.336 1562.2,-265.277" fill="none" stroke="black"/>
<polygon fill="black" points="1565.51,-264.125 1559.32,-255.529 1558.8,-266.111 1565.51,-264.125" stroke="black"/>
</g>
<!-- 14283697936 -->
<g class="node" id="node34"><title>14283697936</title>
<polygon fill="none" points="767.577,-146.5 767.577,-182.5 882.992,-182.5 882.992,-146.5 767.577,-146.5" stroke="black"/>
<text font-family="Times,serif" font-size="14.00" text-anchor="middle" x="825.285" y="-160.3">merge_14: Merge</text>
</g>
<!-- 13439180560&#45;&gt;14283697936 -->
<g class="edge" id="edge33"><title>13439180560-&gt;14283697936</title>
<path d="M149.29,-227.613C170.435,-224.645 194.389,-221.469 216.285,-219 412.142,-196.917 644.309,-178.72 757.046,-170.391" fill="none" stroke="black"/>
<polygon fill="black" points="757.534,-173.865 767.25,-169.64 757.021,-166.884 757.534,-173.865" stroke="black"/>
</g>
<!-- 14283856976&#45;&gt;14283697936 -->
<g class="edge" id="edge34"><title>14283856976-&gt;14283697936</title>
<path d="M345.316,-225.229C357.842,-223.032 370.978,-220.842 383.285,-219 515.277,-199.243 670.288,-181.799 757.224,-172.536" fill="none" stroke="black"/>
<polygon fill="black" points="757.65,-176.011 767.225,-171.475 756.911,-169.05 757.65,-176.011" stroke="black"/>
</g>
<!-- 14290015568&#45;&gt;14283697936 -->
<g class="edge" id="edge35"><title>14290015568-&gt;14283697936</title>
<path d="M512.541,-223.608C520.19,-222.027 527.917,-220.456 535.285,-219 611.251,-203.987 698.682,-188.039 757.513,-177.501" fill="none" stroke="black"/>
<polygon fill="black" points="758.201,-180.934 767.429,-175.728 756.969,-174.043 758.201,-180.934" stroke="black"/>
</g>
<!-- 14292462864&#45;&gt;14283697936 -->
<g class="edge" id="edge36"><title>14292462864-&gt;14283697936</title>
<path d="M657.22,-219.494C688.833,-209.338 729.167,-196.379 762.398,-185.704" fill="none" stroke="black"/>
<polygon fill="black" points="763.565,-189.005 772.016,-182.614 761.424,-182.34 763.565,-189.005" stroke="black"/>
</g>
<!-- 14295383184&#45;&gt;14283697936 -->
<g class="edge" id="edge37"><title>14295383184-&gt;14283697936</title>
<path d="M767.682,-219.313C777.297,-210.33 789.219,-199.193 799.717,-189.386" fill="none" stroke="black"/>
<polygon fill="black" points="802.139,-191.913 807.057,-182.529 797.36,-186.798 802.139,-191.913" stroke="black"/>
</g>
<!-- 14304791184&#45;&gt;14283697936 -->
<g class="edge" id="edge38"><title>14304791184-&gt;14283697936</title>
<path d="M882.887,-219.313C873.272,-210.33 861.351,-199.193 850.852,-189.386" fill="none" stroke="black"/>
<polygon fill="black" points="853.209,-186.798 843.513,-182.529 848.431,-191.913 853.209,-186.798" stroke="black"/>
</g>
<!-- 14306471888&#45;&gt;14283697936 -->
<g class="edge" id="edge39"><title>14306471888-&gt;14283697936</title>
<path d="M1004,-219.494C970.236,-209.294 927.123,-196.268 891.701,-185.566" fill="none" stroke="black"/>
<polygon fill="black" points="892.513,-182.155 881.928,-182.614 890.489,-188.856 892.513,-182.155" stroke="black"/>
</g>
<!-- 14313969552&#45;&gt;14283697936 -->
<g class="edge" id="edge40"><title>14313969552-&gt;14283697936</title>
<path d="M1163.13,-225.209C1151.88,-223.125 1140.23,-220.982 1129.28,-219 1048.11,-204.302 954.647,-187.937 893.017,-177.223" fill="none" stroke="black"/>
<polygon fill="black" points="893.48,-173.751 883.028,-175.488 892.281,-180.648 893.48,-173.751" stroke="black"/>
</g>
<!-- 14317926544&#45;&gt;14283697936 -->
<g class="edge" id="edge41"><title>14317926544-&gt;14283697936</title>
<path d="M1328.21,-224.918C1316.33,-222.806 1303.93,-220.727 1292.28,-219 1151.01,-198.055 984.649,-180.745 893.521,-171.888" fill="none" stroke="black"/>
<polygon fill="black" points="893.616,-168.381 883.325,-170.901 892.942,-175.348 893.616,-168.381" stroke="black"/>
</g>
<!-- 14321630544&#45;&gt;14283697936 -->
<g class="edge" id="edge42"><title>14321630544-&gt;14283697936</title>
<path d="M1494.14,-224.742C1481.97,-222.619 1469.24,-220.582 1457.28,-219 1252.77,-191.956 1009.12,-175.842 893.14,-169.144" fill="none" stroke="black"/>
<polygon fill="black" points="893.177,-165.641 882.993,-168.564 892.777,-172.629 893.177,-165.641" stroke="black"/>
</g>
<!-- 13438870544 -->
<g class="node" id="node35"><title>13438870544</title>
<polygon fill="none" points="766.159,-73.5 766.159,-109.5 884.411,-109.5 884.411,-73.5 766.159,-73.5" stroke="black"/>
<text font-family="Times,serif" font-size="14.00" text-anchor="middle" x="825.285" y="-87.3">dense_226: Dense</text>
</g>
<!-- 14283697936&#45;&gt;13438870544 -->
<g class="edge" id="edge43"><title>14283697936-&gt;13438870544</title>
<path d="M825.285,-146.313C825.285,-138.289 825.285,-128.547 825.285,-119.569" fill="none" stroke="black"/>
<polygon fill="black" points="828.785,-119.529 825.285,-109.529 821.785,-119.529 828.785,-119.529" stroke="black"/>
</g>
<!-- 14327055184 -->
<g class="node" id="node36"><title>14327055184</title>
<polygon fill="none" points="766.159,-0.5 766.159,-36.5 884.411,-36.5 884.411,-0.5 766.159,-0.5" stroke="black"/>
<text font-family="Times,serif" font-size="14.00" text-anchor="middle" x="825.285" y="-14.3">dense_227: Dense</text>
</g>
<!-- 13438870544&#45;&gt;14327055184 -->
<g class="edge" id="edge44"><title>13438870544-&gt;14327055184</title>
<path d="M825.285,-73.3129C825.285,-65.2895 825.285,-55.5475 825.285,-46.5691" fill="none" stroke="black"/>
<polygon fill="black" points="828.785,-46.5288 825.285,-36.5288 821.785,-46.5289 828.785,-46.5288" stroke="black"/>
</g>
</g>
</svg>